# xmcd
#
# Track frame offsets:
#	150
#	16294
#	32704
#	39851
#
# Disc length: 732 seconds
# Revision: 0
# Processed by: cddbd v1.5.2PL0 Copyright (c) Steve Scherf et al.
# Submitted via: dBpowerAMP V12.0
#
DISCID=2202da04
DTITLE=The Crown - Doomsday King
DYEAR=2010
DGENRE=Metal
TTITLE0=Die Before Dying
TTITLE1=In Bitterness and Sorrow
TTITLE2=Kill 2010
TTITLE3=Falling 'Neath the Heaven's Sea
EXTD=
EXTT0=
EXTT1=
EXTT2=
EXTT3=
PLAYORDER=
